<svg width="1280" height="640" viewBox="0 0 1280 640" fill="none" xmlns="http://www.w3.org/2000/svg">
  <defs>
    <linearGradient id="bg" x1="70" y1="50" x2="1210" y2="600" gradientUnits="userSpaceOnUse">
      <stop stop-color="#F3E4BF"/>
      <stop offset="1" stop-color="#E3C27B"/>
    </linearGradient>
    <linearGradient id="panel" x1="0" y1="0" x2="1" y2="1">
      <stop stop-color="#FFF9EA" stop-opacity="0.97"/>
      <stop offset="1" stop-color="#FFF0CF" stop-opacity="0.92"/>
    </linearGradient>
    <filter id="shadow" x="0" y="0" width="1280" height="640" filterUnits="userSpaceOnUse" color-interpolation-filters="sRGB">
      <feDropShadow dx="0" dy="18" stdDeviation="22" flood-color="#5B4320" flood-opacity="0.18"/>
    </filter>
  </defs>

  <rect width="1280" height="640" rx="32" fill="url(#bg)"/>

  <g opacity="0.28">
    <rect x="70" y="90" width="390" height="390" rx="18" fill="#D4A24B"/>
    <g stroke="#7A5625" stroke-width="2.3">
      <path d="M108 126H422"/>
      <path d="M108 164H422"/>
      <path d="M108 202H422"/>
      <path d="M108 240H422"/>
      <path d="M108 278H422"/>
      <path d="M108 316H422"/>
      <path d="M108 354H422"/>
      <path d="M108 392H422"/>
      <path d="M108 430H422"/>
      <path d="M108 126V430"/>
      <path d="M146 126V430"/>
      <path d="M184 126V430"/>
      <path d="M222 126V430"/>
      <path d="M260 126V430"/>
      <path d="M298 126V430"/>
      <path d="M336 126V430"/>
      <path d="M374 126V430"/>
      <path d="M412 126V430"/>
    </g>
    <g fill="#7A5625">
      <circle cx="184" cy="202" r="5.5"/>
      <circle cx="184" cy="354" r="5.5"/>
      <circle cx="260" cy="278" r="5.5"/>
      <circle cx="336" cy="202" r="5.5"/>
      <circle cx="336" cy="354" r="5.5"/>
    </g>
    <g filter="url(#shadow)">
      <circle cx="184" cy="240" r="21" fill="#1E1E1E"/>
      <circle cx="222" cy="278" r="21" fill="#F7F4ED" stroke="#CDB999" stroke-width="3"/>
      <circle cx="260" cy="240" r="21" fill="#1E1E1E"/>
      <circle cx="336" cy="278" r="21" fill="#F7F4ED" stroke="#CDB999" stroke-width="3"/>
      <circle cx="298" cy="316" r="21" fill="#1E1E1E"/>
      <circle cx="374" cy="240" r="21" fill="#F7F4ED" stroke="#CDB999" stroke-width="3"/>
    </g>
  </g>

  <g filter="url(#shadow)">
    <rect x="430" y="82" width="790" height="476" rx="28" fill="url(#panel)"/>
  </g>

  <rect x="482" y="134" width="168" height="40" rx="20" fill="#173C34"/>
  <text x="566" y="160" text-anchor="middle" font-family="Avenir Next, Segoe UI, Arial, sans-serif" font-size="20" font-weight="700" fill="#FAF3E2">MAINTAINED FORK</text>

  <text x="482" y="244" font-family="Avenir Next, Segoe UI, Arial, sans-serif" font-size="68" font-weight="800" fill="#171717">LizzieYzy</text>
  <text x="482" y="320" font-family="Avenir Next, Segoe UI, Arial, sans-serif" font-size="68" font-weight="800" fill="#171717">Next-FoxUID</text>

  <text x="482" y="382" font-family="Avenir Next, Segoe UI, Arial, sans-serif" font-size="28" font-weight="600" fill="#6B5631">Fox sync fixed. Fox ID input. KataGo-ready releases.</text>
  <text x="482" y="420" font-family="Avenir Next, Segoe UI, Arial, sans-serif" font-size="24" font-weight="500" fill="#7A6640">Windows  x  macOS  x  Linux</text>

  <g>
    <rect x="482" y="470" width="150" height="48" rx="24" fill="#1B4D3E"/>
    <text x="557" y="500" text-anchor="middle" font-family="Avenir Next, Segoe UI, Arial, sans-serif" font-size="21" font-weight="700" fill="#F6F0E1">Fox ID Sync</text>

    <rect x="648" y="470" width="184" height="48" rx="24" fill="#7F4F24"/>
    <text x="740" y="500" text-anchor="middle" font-family="Avenir Next, Segoe UI, Arial, sans-serif" font-size="21" font-weight="700" fill="#FFF7E8">Built-in KataGo</text>

    <rect x="848" y="470" width="232" height="48" rx="24" fill="#2F4858"/>
    <text x="964" y="500" text-anchor="middle" font-family="Avenir Next, Segoe UI, Arial, sans-serif" font-size="21" font-weight="700" fill="#F5F7FA">Practical Releases</text>
  </g>
</svg>
